:FULLY-SPECIFIED
:FORCE-ALL-JOINTS-BE-3DOF
:DEGREES
307
root 9.84321 16.6436 7.94753 5.76888 5.26167 3.59918
lfemur 15.2061 6.17285 -25.0941
ltibia 6.94599 -0 0
lfoot -9.3574 -0.153846 -0.427808
ltoes -10.7622 0 0
rfemur -43.5363 -0.317242 15.6482
rtibia 45.8519 -0 0
rfoot -15.2469 -7.70122 0.3466
rtoes -22.4573 0 0
lowerback -6.48598 -4.56548 -5.23083
upperback -0.531627 -5.78595 2.18425
thorax 3.7667 -2.9793 4.62938
lowerneck -20.5752 -4.03729 -12.0993
upperneck 22.1701 -4.94021 12.0738
head 11.2193 -1.82417 5.73366
lclavicle 3.89627e-14 -1.14958e-15 1.23462e-30
lhumerus -14.1461 -29.0645 91.7738
lradius 32.753 -0 0
lwrist 5.80408 0 0
lhand -12.1191 -25.0197 -0.0125089
lfingers 7.12502 -0 0
lthumb 13.9387 4.43662 -0.024986
rclavicle 3.89627e-14 -1.14958e-15 1.23462e-30
rhumerus -49.3494 6.17025 -82.3888
rradius 35.204 -0 0
rwrist -19.1071 0 0
rhand -28.9226 -22.9405 -0.0140797
rfingers 7.12502 -0 0
rthumb -2.27696 -52.9072 -0.0136263
308
root 9.82431 16.6252 8.2019 5.83007 5.5217 3.58982
lfemur 16.3187 6.20576 -24.7397
ltibia 6.15158 -0 0
lfoot -8.624 -0.471896 -0.42257
ltoes -11.1178 0 0
rfemur -43.7168 -0.284521 15.6391
rtibia 45.6292 -0 0
rfoot -14.6466 -7.25975 0.369162
rtoes -22.2921 0 0
lowerback -6.5777 -4.60729 -5.25619
upperback -0.579398 -5.83547 2.18896
thorax 3.77715 -3.00347 4.63784
lowerneck -20.4713 -4.07227 -12.159
upperneck 22.0887 -4.99705 12.1533
head 11.182 -1.84847 5.76214
lclavicle 3.90873e-14 -1.98686e-15 1.23878e-30
lhumerus -14.5651 -29.6626 92.2462
lradius 33.1571 -0 0
lwrist 5.9036 0 0
lhand -11.7891 -25.037 -0.0113075
lfingers 7.12502 -0 0
lthumb 14.2566 4.39625 -0.0240007
rclavicle 3.90873e-14 -1.98686e-15 1.23878e-30
rhumerus -49.4939 6.0865 -82.3849
rradius 34.8185 -0 0
rwrist -18.8317 0 0
rhand -28.8671 -23.0541 -0.0141488
rfingers 7.12502 -0 0
rthumb -2.2233 -53.0214 -0.0136907
309
root 9.80548 16.6066 8.44957 5.89239 5.77875 3.57772
lfemur 17.4044 6.23171 -24.3817
ltibia 5.37912 -0 0
lfoot -7.89077 -0.785739 -0.413203
ltoes -11.4685 0 0
rfemur -43.8754 -0.248425 15.6335
rtibia 45.398 -0 0
rfoot -14.0396 -6.81157 0.387506
rtoes -22.1236 0 0
lowerback -6.66939 -4.6462 -5.27895
upperback -0.628028 -5.88125 2.19377
thorax 3.7863 -3.02571 4.64524
lowerneck -20.3665 -4.10827 -12.2194
upperneck 22.0057 -5.05536 12.2338
head 11.1443 -1.87344 5.79081
lclavicle 3.91843e-14 -2.83645e-15 1.23618e-30
lhumerus -15.0108 -30.2491 92.7305
lradius 33.5571 -0 0
lwrist 6.0012 0 0
lhand -11.4579 -25.0528 -0.00999193
lfingers 7.12502 -0 0
lthumb 14.5756 4.35724 -0.0227744
rclavicle 3.91843e-14 -2.83645e-15 1.23618e-30
rhumerus -49.634 6.00601 -82.3829
rradius 34.4362 -0 0
rwrist -18.5576 0 0
rhand -28.812 -23.168 -0.0140956
rfingers 7.12502 -0 0
rthumb -2.17012 -53.136 -0.0136365
310
root 9.78685 16.588 8.68937 5.95548 6.03215 3.56288
lfemur 18.4591 6.25061 -24.0214
ltibia 4.63214 -0 0
lfoot -7.1608 -1.09391 -0.399875
ltoes -11.8129 0 0
rfemur -44.0124 -0.208878 15.6317
rtibia 45.1594 -0 0
rfoot -13.4291 -6.35856 0.401317
rtoes -21.9524 0 0
lowerback -6.76067 -4.68213 -5.29902
upperback -0.677256 -5.92322 2.19867
thorax 3.79418 -3.04597 4.65157
lowerneck -20.2613 -4.14513 -12.2803
upperneck 21.9215 -5.11491 12.3149
head 11.1064 -1.89898 5.81951
lclavicle 3.92535e-14 -3.69619e-15 1.22695e-30
lhumerus -15.4819 -30.8218 93.2255
lradius 33.9517 -0 0
lwrist 6.09712 0 0
lhand -11.1271 -25.0672 -0.00858511
lfingers 7.12502 -0 0
lthumb 14.8943 4.31976 -0.0213283
rclavicle 3.92535e-14 -3.69619e-15 1.22695e-30
rhumerus -49.769 5.92935 -82.3828
rradius 34.0587 -0 0
rwrist -18.2859 0 0
rhand -28.7577 -23.2819 -0.0139212
rfingers 7.12502 -0 0
rthumb -2.11766 -53.2504 -0.0134648
311
root 9.76854 16.5695 8.9201 6.01899 6.28127 3.54531
lfemur 19.479 6.26244 -23.6601
ltibia 3.9142 -0 0
lfoot -6.43716 -1.39493 -0.382822
ltoes -12.1498 0 0
rfemur -44.128 -0.165806 15.634
rtibia 44.9142 -0 0
rfoot -12.8185 -5.90257 0.410371
rtoes -21.7794 0 0
lowerback -6.85115 -4.71499 -5.31629
upperback -0.726825 -5.96128 2.20368
thorax 3.80079 -3.06422 4.65682
lowerneck -20.1562 -4.18274 -12.3414
upperneck 21.8367 -5.17549 12.3963
head 11.0685 -1.925 5.84812
lclavicle 3.92951e-14 -4.56393e-15 1.21126e-30
lhumerus -15.9767 -31.3789 93.7297
lradius 34.3396 -0 0
lwrist 6.19161 0 0
lhand -10.7981 -25.08 -0.00711147
lfingers 7.12502 -0 0
lthumb 15.2113 4.28402 -0.0196877
rclavicle 3.92951e-14 -4.56393e-15 1.21126e-30
rhumerus -49.8977 5.85715 -82.3847
rradius 33.6875 -0 0
rwrist -18.0176 0 0
rhand -28.7044 -23.3954 -0.0136284
rfingers 7.12502 -0 0
rthumb -2.0662 -53.3645 -0.0131786
